# xmcd
#
# Track frame offsets: 
#        150
#        17481
#        40517
#        55734
#        79704
#        98623
#        117904
#        135862
#        162986
#        183185
#
# Disc length: 2815 seconds
#
# Revision: 0
# Processed by: cddbd v1.5.2PL0 Copyright (c) Steve Scherf et al.
# Submitted via: ExactAudioCopyFreeDBPlugin 1.0
#
DISCID=660afd0a
DTITLE=Thanh Lam - Bien Ngay Mua
DYEAR=1900
DGENRE=
TTITLE0=Tro lai mua he
TTITLE1=Bang Kieu - Bai ca dem
TTITLE2=Tran Thu Ha - Chiec la vo tinh
TTITLE3=My Linh - Cua so mua dong
TTITLE4=Tim bo cat trang
TTITLE5=My Linh - Thang 4 ve
TTITLE6=Bang Kieu - Roi anh lai den
TTITLE7=Van Khanh - Bien ngay mua
TTITLE8=Ve bien hat
TTITLE9=Hong Nhung - Hoa mi hot trong mua
EXTD=
EXTT0=
EXTT1=
EXTT2=
EXTT3=
EXTT4=
EXTT5=
EXTT6=
EXTT7=
EXTT8=
EXTT9=
PLAYORDER=
